<svg width="26" height="26" viewBox="0 0 26 26" fill="none" xmlns="http://www.w3.org/2000/svg">
<path d="M0 12.9979C0.000732202 16.0937 1.10561 19.0876 3.11605 21.4416C5.12649 23.7957 7.91065 25.3555 10.9681 25.8406V16.7549H7.67V12.9979H10.972V10.1379C10.8991 9.46856 10.9745 8.79133 11.1928 8.15436C11.4111 7.51739 11.767 6.9363 12.2351 6.45235C12.7033 5.96842 13.2723 5.5935 13.9017 5.35423C14.5311 5.11497 15.2055 5.01723 15.8769 5.06794C16.8519 5.08354 17.8269 5.17064 18.7889 5.32794V8.52464H17.1457C16.8664 8.48807 16.5825 8.51471 16.3149 8.60262C16.0473 8.69053 15.8029 8.83744 15.5997 9.03251C15.3965 9.22758 15.2398 9.46582 15.141 9.72961C15.0423 9.9934 15.0041 10.276 15.0293 10.5565V12.9979H18.6316L18.0557 16.7562H15.0293V25.8406C17.4832 25.4528 19.7746 24.37 21.6322 22.7203C23.4898 21.0707 24.8358 18.9233 25.5109 16.5324C26.1859 14.1415 26.1618 11.6073 25.4412 9.22968C24.7207 6.8521 23.334 4.73076 21.4453 3.11683C19.5566 1.5029 17.2449 0.463955 14.7841 0.12301C12.3232 -0.217935 9.8162 0.153395 7.55983 1.19304C5.30346 2.23268 3.39224 3.8971 2.05245 5.98923C0.712652 8.08136 0.000394381 10.5136 0 12.9979Z" fill="white"/>
</svg>
