<svg width="27" height="26" viewBox="0 0 27 26" fill="none" xmlns="http://www.w3.org/2000/svg">
<path d="M13.7002 9.90438C13.088 9.9046 12.4896 10.0864 11.9807 10.4266C11.4718 10.7669 11.0752 11.2505 10.841 11.8162C10.6069 12.3818 10.5458 13.0042 10.6654 13.6046C10.7849 14.2051 11.0799 14.7565 11.5128 15.1893C11.9458 15.6222 12.4974 15.9169 13.0979 16.0362C13.6983 16.1556 14.3207 16.0942 14.8863 15.8599C15.4519 15.6255 15.9353 15.2288 16.2754 14.7197C16.6155 14.2107 16.797 13.6122 16.797 13C16.7964 12.179 16.4699 11.3918 15.8892 10.8113C15.3085 10.2309 14.5212 9.90468 13.7002 9.90438ZM20.9378 7.52491C20.7802 7.12553 20.5423 6.7628 20.2387 6.4592C19.9351 6.15561 19.5723 5.91764 19.173 5.76004C17.9542 5.27893 15.0524 5.38687 13.7002 5.38687C12.348 5.38687 9.44908 5.27487 8.22685 5.76004C7.82747 5.91764 7.46473 6.15561 7.16114 6.4592C6.85755 6.7628 6.61957 7.12553 6.46198 7.52491C5.98145 8.74366 6.08881 11.6483 6.08881 12.9994C6.08881 14.3505 5.98145 17.2517 6.4643 18.4745C6.62189 18.8739 6.85987 19.2366 7.16346 19.5402C7.46705 19.8438 7.82979 20.0818 8.22917 20.2394C9.44792 20.7205 12.3497 20.6125 13.7025 20.6125C15.0553 20.6125 17.9531 20.7246 19.1753 20.2394C19.5747 20.0818 19.9374 19.8438 20.241 19.5402C20.5446 19.2366 20.7826 18.8739 20.9401 18.4745C21.4247 17.2558 21.3133 14.3511 21.3133 13C21.3133 11.6489 21.4247 8.7483 20.9401 7.52549L20.9378 7.52491ZM13.7002 17.7589C12.759 17.7589 11.8389 17.4798 11.0563 16.9569C10.2737 16.434 9.66371 15.6907 9.30352 14.8212C8.94333 13.9516 8.84908 12.9947 9.03271 12.0716C9.21633 11.1484 9.66958 10.3005 10.3351 9.63493C11.0007 8.96938 11.8486 8.51614 12.7718 8.33251C13.6949 8.14889 14.6518 8.24313 15.5214 8.60332C16.3909 8.96352 17.1342 9.57348 17.6571 10.3561C18.18 11.1387 18.4591 12.0588 18.4591 13C18.4599 13.6252 18.3373 14.2443 18.0984 14.8221C17.8595 15.3998 17.509 15.9247 17.067 16.3668C16.6249 16.8088 16.1 17.1593 15.5223 17.3982C14.9445 17.6371 14.3254 17.7597 13.7002 17.7589ZM18.6553 9.15223C18.4356 9.15235 18.2207 9.0873 18.038 8.96531C17.8552 8.84332 17.7128 8.66988 17.6286 8.46692C17.5445 8.26395 17.5224 8.04059 17.5652 7.82508C17.608 7.60956 17.7137 7.41158 17.869 7.25618C18.0244 7.10077 18.2223 6.99492 18.4378 6.95201C18.6533 6.9091 18.8766 6.93107 19.0797 7.01512C19.2827 7.09918 19.4562 7.24156 19.5783 7.42424C19.7003 7.60692 19.7655 7.82171 19.7655 8.04143C19.7661 8.18734 19.7379 8.33193 19.6825 8.46692C19.6271 8.6019 19.5456 8.72462 19.4427 8.82804C19.3398 8.93146 19.2174 9.01354 19.0827 9.06957C18.948 9.1256 18.8035 9.15448 18.6576 9.15455L18.6553 9.15223ZM23.9145 0H3.48591C2.74709 0 2.03853 0.293494 1.51611 0.815917C0.993689 1.33834 0.700195 2.0469 0.700195 2.78571L0.700195 23.2143C0.700195 23.9531 0.993689 24.6617 1.51611 25.1841C2.03853 25.7065 2.74709 26 3.48591 26H23.9145C24.6533 26 25.3619 25.7065 25.8843 25.1841C26.4067 24.6617 26.7002 23.9531 26.7002 23.2143V2.78571C26.7002 2.0469 26.4067 1.33834 25.8843 0.815917C25.3619 0.293494 24.6533 0 23.9145 0ZM22.9209 16.8304C22.846 18.3178 22.5065 19.6358 21.4207 20.7188C20.3348 21.8017 19.018 22.1482 17.5323 22.219C15.9996 22.3054 11.4043 22.3054 9.87158 22.219C8.38412 22.1441 7.07078 21.804 5.98319 20.7188C4.8956 19.6335 4.55377 18.3149 4.48296 16.8304C4.39649 15.2971 4.39649 10.7012 4.48296 9.16964C4.55783 7.68219 4.89328 6.3642 5.98319 5.28125C7.0731 4.1983 8.38993 3.85589 9.87158 3.78509C11.4043 3.69862 15.9996 3.69862 17.5323 3.78509C19.0197 3.85996 20.3372 4.20004 21.4207 5.28531C22.5042 6.37058 22.8501 7.68915 22.9209 9.17661C23.0074 10.7041 23.0074 15.2959 22.9209 16.8304Z" fill="white"/>
</svg>
